<?xml version="1.0" encoding="utf-8"?>
<!-- Generator: Adobe Illustrator 24.1.2, SVG Export Plug-In . SVG Version: 6.00 Build 0)  -->
<svg version="1.1" id="Layer_1" xmlns="http://www.w3.org/2000/svg" xmlns:xlink="http://www.w3.org/1999/xlink" x="0px" y="0px"
	 viewBox="0 0 215 215" style="enable-background:new 0 0 215 215;" xml:space="preserve">
<style type="text/css">
	.st0{fill:none;stroke:#FFFFFF;stroke-width:8;stroke-miterlimit:10;}
	.st1{fill:#FFFFFF;}
</style>
<g>
	<path class="st0" d="M211.5,151.5c0,33-27,60-60,60h-88c-33,0-60-27-60-60v-88c0-33,27-60,60-60h88c33,0,60,27,60,60V151.5z"/>
</g>
<g>
	<path class="st1" d="M81.5,133.1c0.1-0.1,0.2-0.2,0.3-0.3c2-2.7,1.7-6.5-0.7-8.9l-11.8-11.8c-2.3-2.3-2.4-5.9-0.4-8.3l12.7-15.2
		c2.1-2.5,2.2-6.2,0.1-8.8c-0.1-0.1-0.1-0.2-0.2-0.2L61,61.7c-0.7-0.6-1.7-0.5-2.3,0.1c-11,12-17.7,28.1-17.7,45.6
		c0,17,6.2,32.5,16.6,44.4c0.6,0.7,1.6,0.8,2.3,0.2L81.5,133.1z"/>
</g>
<g>
	<path class="st1" d="M149.4,56.9v101.3c0,1.4,1.6,2.2,2.7,1.3c14.8-12.4,24.2-31.1,24.2-51.9c0-20.8-9.4-39.5-24.2-51.9
		C151,54.7,149.4,55.5,149.4,56.9z"/>
</g>
<g>
	<path class="st1" d="M129.1,44.2c0-0.7-0.5-1.4-1.2-1.6c-6.1-1.8-12.6-2.8-19.3-2.8c-11.7,0-22.7,3-32.2,8.2
		c-1,0.5-1.2,1.8-0.4,2.6l29.2,28.7c0,0,0.1,0.1,0.1,0.1c2.3,2.8,2.3,6.7,0,9.5l-12.8,15.4c-1.8,2.2-1.7,5.4,0.3,7.5l11.8,11.8
		c2.7,2.7,3.1,6.8,1,10c-0.1,0.1-0.2,0.2-0.3,0.3l-31.1,29.6c-0.8,0.8-0.6,2.1,0.3,2.6c10,5.8,21.6,9.2,34,9.2
		c6.7,0,13.2-1,19.3-2.8c0.7-0.2,1.2-0.9,1.2-1.6V44.2z"/>
</g>
</svg>
