<?xml version="1.0" encoding="utf-8"?>
<!-- Generator: Adobe Illustrator 24.1.2, SVG Export Plug-In . SVG Version: 6.00 Build 0)  -->
<svg version="1.1"
	 id="svg4009" xmlns:cc="http://creativecommons.org/ns#" xmlns:dc="http://purl.org/dc/elements/1.1/" xmlns:rdf="http://www.w3.org/1999/02/22-rdf-syntax-ns#" xmlns:svg="http://www.w3.org/2000/svg"
	 xmlns="http://www.w3.org/2000/svg" xmlns:xlink="http://www.w3.org/1999/xlink" x="0px" y="0px" viewBox="0 0 250 160"
	 style="enable-background:new 0 0 250 160;" xml:space="preserve">
<style type="text/css">
	.st0{fill-opacity:0.498;}
	.st1{fill:none;}
	.st2{fill:none;stroke:#000000;stroke-width:15;stroke-linecap:round;stroke-miterlimit:10;stroke-opacity:0.498;}
</style>
<path id="rect4017" class="st0" d="M23.9,40h31.2c5.5,0,9.9,8.2,9.9,18.4v43.2c0,10.2-4.4,18.4-9.9,18.4H23.9
	c-5.5,0-9.9-8.2-9.9-18.4V58.4C14,48.2,18.4,40,23.9,40z"/>
<path id="path4028" class="st0" d="M64,108.6V51.4L132,0v160L64,108.6z"/>
<path class="st1" d="M185,30c0,0,0.9,0,2,0"/>
<path class="st1" d="M186,147c0,0,0.4,0,1,0"/>
<path class="st2" d="M157.3,121.7c22.2-22.2,22.2-58.1,0-80.2"/>
<path class="st2" d="M179.4,140.2c32.4-32.4,32.4-84.8,0-117.2"/>
<path class="st2" d="M201.6,156c41.2-41.2,41.2-108,0-149.2"/>
</svg>
