<?xml version="1.0" encoding="utf-8"?>
<!-- Generator: Adobe Illustrator 24.1.2, SVG Export Plug-In . SVG Version: 6.00 Build 0)  -->
<svg version="1.1" id="Layer_1" xmlns="http://www.w3.org/2000/svg" xmlns:xlink="http://www.w3.org/1999/xlink" x="0px" y="0px"
	 viewBox="0 0 215 215" style="enable-background:new 0 0 215 215;" xml:space="preserve">
<style type="text/css">
	.st0{fill:none;stroke:#FFFFFF;stroke-width:8;stroke-miterlimit:10;}
	.st1{fill:#FFFFFF;}
</style>
<g>
	<path class="st0" d="M211.5,151.5c0,33-27,60-60,60h-88c-33,0-60-27-60-60v-88c0-33,27-60,60-60h88c33,0,60,27,60,60V151.5z"/>
</g>
<g>
	<path class="st1" d="M76.4,136.9c0.1-0.1,0.2-0.2,0.3-0.3c2.3-3.1,1.9-7.4-0.8-10.2l-13.5-13.5c-2.6-2.6-2.8-6.7-0.4-9.6l14.6-17.5
		c2.4-2.9,2.5-7.1,0.2-10.1c-0.1-0.1-0.2-0.2-0.3-0.3L52.9,55.1c-0.8-0.7-1.9-0.6-2.6,0.2C37.7,69.1,30,87.4,30,107.6
		c0,19.5,7.2,37.2,19,50.8c0.7,0.8,1.9,0.9,2.7,0.2L76.4,136.9z"/>
</g>
<g>
	<path class="st1" d="M154.3,49.6v116.1c0,1.6,1.9,2.5,3.1,1.5c17-14.2,27.8-35.6,27.8-59.5s-10.8-45.3-27.8-59.5
		C156.2,47.1,154.3,48,154.3,49.6z"/>
</g>
<g>
	<path class="st1" d="M131.1,35c0-0.8-0.5-1.6-1.3-1.8c-7-2.1-14.4-3.2-22.1-3.2c-13.4,0-26,3.4-37,9.4c-1.1,0.6-1.3,2.1-0.4,3
		l33.4,32.9c0.1,0.1,0.1,0.1,0.2,0.2c2.6,3.2,2.6,7.7,0,10.9l-14.7,17.6c-2.1,2.5-1.9,6.2,0.4,8.6L103,126c3.1,3.1,3.5,7.8,1.2,11.4
		c-0.1,0.1-0.2,0.2-0.3,0.3l-35.7,33.9c-0.9,0.9-0.7,2.4,0.3,3c11.5,6.7,24.8,10.5,39,10.5c7.7,0,15.1-1.1,22.1-3.2
		c0.8-0.2,1.3-1,1.3-1.8V35z"/>
</g>
</svg>
