<?xml version="1.0" encoding="utf-8"?>
<!-- Generator: Adobe Illustrator 24.1.2, SVG Export Plug-In . SVG Version: 6.00 Build 0)  -->
<svg version="1.1" id="Layer_1" xmlns="http://www.w3.org/2000/svg" xmlns:xlink="http://www.w3.org/1999/xlink" x="0px" y="0px"
	 viewBox="0 0 72 72" style="enable-background:new 0 0 72 72;" xml:space="preserve">
<style type="text/css">
	.st0{fill:#3F3F3F;stroke:#F9F9F9;stroke-miterlimit:10;}
	.st1{fill:#006837;}
	.st2{fill:#F15A24;}
	.st3{fill:#0071BC;}
</style>
<circle class="st0" cx="36" cy="36" r="27.6"/>
<g>
	<path class="st1" d="M29.3,42.4C29.3,42.3,29.3,42.3,29.3,42.4c0.6-0.7,0.5-1.7-0.1-2.3l-2.9-2.9c-0.6-0.6-0.6-1.5-0.1-2.1l3.2-3.8
		c0.5-0.6,0.5-1.5,0-2.2c0,0,0,0-0.1-0.1l-5.1-4.4c-0.2-0.1-0.4-0.1-0.6,0c-2.7,3-4.4,7-4.4,11.3c0,4.2,1.6,8.1,4.1,11
		c0.1,0.2,0.4,0.2,0.6,0L29.3,42.4z"/>
</g>
<g>
	<path class="st2" d="M46.1,23.4v25.1c0,0.3,0.4,0.5,0.7,0.3c3.7-3.1,6-7.7,6-12.9s-2.3-9.8-6-12.9C46.5,22.9,46.1,23.1,46.1,23.4z"
		/>
</g>
<g>
	<path class="st3" d="M41.1,20.3c0-0.2-0.1-0.3-0.3-0.4c-1.5-0.5-3.1-0.7-4.8-0.7c-2.9,0-5.6,0.7-8,2c-0.2,0.1-0.3,0.5-0.1,0.7
		l7.2,7.1c0,0,0,0,0,0c0.6,0.7,0.6,1.7,0,2.4L32,35.2c-0.5,0.5-0.4,1.3,0.1,1.9L35,40c0.7,0.7,0.8,1.7,0.3,2.5c0,0,0,0.1-0.1,0.1
		l-7.7,7.4c-0.2,0.2-0.2,0.5,0.1,0.6c2.5,1.4,5.4,2.3,8.4,2.3c1.7,0,3.3-0.2,4.8-0.7c0.2-0.1,0.3-0.2,0.3-0.4V20.3z"/>
</g>
</svg>
